<?xml version="1.0" encoding="UTF-8" standalone="no"?>
<svg
   xmlns:dc="http://purl.org/dc/elements/1.1/"
   xmlns:cc="http://creativecommons.org/ns#"
   xmlns:rdf="http://www.w3.org/1999/02/22-rdf-syntax-ns#"
   xmlns:svg="http://www.w3.org/2000/svg"
   xmlns="http://www.w3.org/2000/svg"
   xmlns:sodipodi="http://sodipodi.sourceforge.net/DTD/sodipodi-0.dtd"
   xmlns:inkscape="http://www.inkscape.org/namespaces/inkscape"
   version="1.1"
   id="Layer_1"
   x="0px"
   y="0px"
   width="221px"
   height="55px"
   viewBox="0 0 221 55"
   enable-background="new 0 0 221 55"
   xml:space="preserve"
   sodipodi:docname="logo.svg"
   inkscape:version="1.0.2-2 (e86c870879, 2021-01-15)"><metadata
   id="metadata33"><rdf:RDF><cc:Work
       rdf:about=""><dc:format>image/svg+xml</dc:format><dc:type
         rdf:resource="http://purl.org/dc/dcmitype/StillImage" /><dc:title /></cc:Work></rdf:RDF></metadata><defs
   id="defs31" /><sodipodi:namedview
   pagecolor="#ffffff"
   bordercolor="#666666"
   borderopacity="1"
   objecttolerance="10"
   gridtolerance="10"
   guidetolerance="10"
   inkscape:pageopacity="0"
   inkscape:pageshadow="2"
   inkscape:window-width="1600"
   inkscape:window-height="837"
   id="namedview29"
   showgrid="false"
   inkscape:zoom="4.9954751"
   inkscape:cx="149.03487"
   inkscape:cy="27.5"
   inkscape:window-x="-8"
   inkscape:window-y="32"
   inkscape:window-maximized="1"
   inkscape:current-layer="g26"
   inkscape:document-rotation="0"
   showborder="false" />
<text
   transform="matrix(1 0 0 1 -2.0997 53.3805)"
   display="none"
   id="text12"><tspan
     x="0"
     y="0"
     display="inline"
     font-family="'Metropolis-Bold'"
     font-size="80"
     letter-spacing="-4"
     id="tspan2">co</tspan><tspan
     x="86.558"
     y="0"
     display="inline"
     font-family="'Metropolis-Bold'"
     font-size="80"
     letter-spacing="-4"
     id="tspan4">u</tspan><tspan
     x="131.438"
     y="0"
     display="inline"
     font-family="'Metropolis-Bold'"
     font-size="80"
     letter-spacing="-4"
     id="tspan6">n</tspan><tspan
     x="176.158"
     y="0"
     display="inline"
     font-family="'Metropolis-Bold'"
     font-size="80"
     letter-spacing="-3"
     id="tspan8">t</tspan><tspan
     x="204.397"
     y="0"
     display="inline"
     font-family="'Metropolis-Bold'"
     font-size="80"
     letter-spacing="-3"
     id="tspan10">.</tspan></text>
<g
   id="g26">
	<path
   id="path14"
   style="fill:#ffffff;stroke-width:1;fill-opacity:1"
   d="M 117.66096,0.4195651 C 102.1766,0.42083005 89.021492,12.865004 89.021492,27.742188 c 0,14.877184 13.055078,27.426388 28.538178,27.426388 8.7029,0 15.78611,-3.540996 20.9484,-9.208012 l -9.81578,-8.301294 c -2.73232,3.035901 -6.98346,5.059837 -11.03133,5.059837 -7.79215,0 -14.26785,-6.880014 -14.26785,-15.078215 0,-7.994541 6.47559,-14.774327 14.16656,-14.774327 4.04786,0 8.19635,1.922541 10.82874,4.857245 l 9.81825,-8.4001185 C 133.14683,3.8590681 126.16148,0.4195651 117.66096,0.4195651 Z m 0.87212,18.1664919 c -5.26222,0 -9.41307,4.249176 -9.41307,9.005423 0,5.161032 4.15085,9.410604 9.41307,9.410604 4.95864,0 9.00543,-4.249572 9.00543,-9.410604 0.001,-4.754982 -4.04679,-9.005423 -9.00543,-9.005423 z"
   inkscape:export-xdpi="135.79439"
   inkscape:export-ydpi="135.79439" />
	
	
	
	
	
</g>
</svg>
